<?xml version="1.0" encoding="utf-8"?>
<!-- Generator: Adobe Illustrator 22.1.0, SVG Export Plug-In . SVG Version: 6.00 Build 0)  -->
<svg version="1.1" id="Layer_1" xmlns="http://www.w3.org/2000/svg" xmlns:xlink="http://www.w3.org/1999/xlink" x="0px" y="0px"
	 viewBox="0 0 598 598" style="enable-background: new 0 0 2415.2 598" xml:space="preserve" width="1em" height="1em">
<style type="text/css">
	.st0{fill:url(#SVGID_1_);}
	.st1{fill:#FFFFFF;}
	.st2{fill:#182359;}
</style>
<linearGradient id="SVGID_1_" gradientUnits="userSpaceOnUse" x1="1324.224" y1="292.3224" x2="1330.111" y2="286.6224" gradientTransform="matrix(170.576 0 0 170.625 -226106.4688 -49070.5078)">
	<stop  offset="0" style="stop-color: #00AEFF"/>
	<stop  offset="1" style="stop-color: #3369E7"/>
</linearGradient>
<path class="st0" d="M 78.7 0 h 440.4 c 43.3 0 78.7 35.2 78.7 78.7 v 440.6 c 0 43.3 -35.2 78.7 -78.7 78.7 H 78.7 C 35.4 598 0 562.8 0 519.3 V 78.5 C 0 35.2 35.2 0 78.7 0 L 78.7 0 z"/>
<path class="st1" d="M 305.8 151.1 c -93.2 0 -168.9 75.6 -168.9 169 S 212.6 489 305.8 489 s 168.9 -75.6 168.9 -169 S 399.2 151.1 305.8 151.1 L 305.8 151.1 z M 305.8 439.1 c -65.7 0 -119 -53.3 -119 -119 s 53.3 -119 119 -119 s 119 53.3 119 119 S 371.6 439.1 305.8 439.1 z M 305.8 225.5 v 88.7 c 0 2.5 2.7 4.4 5.1 3.1 l 78.7 -40.8 c 1.8 -0.9 2.4 -3.1 1.5 -4.9 c -16.3 -28.7 -46.6 -48.2 -81.6 -49.5 C 307.6 222 305.8 223.5 305.8 225.5 L 305.8 225.5 z M 195.5 160.3 L 185.2 150 c -10.2 -10.2 -26.5 -10.2 -36.6 0 l -12.3 12.3 c -10.2 10.2 -10.2 26.5 0 36.6 l 10.2 10.2 c 1.6 1.6 4 1.3 5.4 -0.4 c 6 -8.2 12.5 -16 19.8 -23.2 c 7.4 -7.4 15.1 -14 23.4 -20 C 196.8 164.5 197 162 195.5 160.3 L 195.5 160.3 z M 361.1 133.5 V 113 c 0 -14.3 -11.6 -25.9 -25.9 -25.9 h -60.4 c -14.3 0 -25.9 11.6 -25.9 25.9 v 21 c 0 2.4 2.2 4 4.5 3.4 c 16.9 -4.9 34.6 -7.4 52.6 -7.4 c 17.2 0 34.3 2.4 50.8 6.9 C 358.9 137.5 361.1 135.9 361.1 133.5 L 361.1 133.5 z"/>
</svg>
