<?xml version="1.0" encoding="utf-8"?>
<!-- Generator: Adobe Illustrator 22.0.1, SVG Export Plug-In . SVG Version: 6.00 Build 0)  -->
<svg version="1.1"
	 id="svg3363" xmlns:cc="http://creativecommons.org/ns#" xmlns:dc="http://purl.org/dc/elements/1.1/" xmlns:rdf="http://www.w3.org/1999/02/22-rdf-syntax-ns#" xmlns:svg="http://www.w3.org/2000/svg"
	 xmlns="http://www.w3.org/2000/svg" xmlns:xlink="http://www.w3.org/1999/xlink" x="0px" y="0px" viewBox="0 0 121.1 123.2"
	 style="enable-background:new 0 0 121.1 123.2;" xml:space="preserve" width="1em" height="1em">
<style type="text/css">
	.st0{fill:#737373;}
</style>
<path id="XMLID_69_" class="st0" d="M91.3,34.9c-3.9-3.9-8.1-7-12.5-9.1s-10.1-3.1-16.6-3.1c-5.2,0-10.2,0.9-14.8,2.8
	c-4.6,1.8-8.7,4.5-12.1,7.8c-3.5,3.4-6.3,7.5-8.3,12.3s-3,10.1-3,16c0,5.9,1,11.2,3,16s4.8,8.8,8.3,12.2c3.5,3.4,7.6,6.1,12.3,7.9
	c4.6,1.8,9.7,2.8,15,2.8c5.6,0,10.6-0.8,14.8-2.4c4.2-1.6,7.8-3.8,10.8-6.5c2-1.8,3.9-4.1,5.5-6.8c1.6-2.8,2.9-5.8,3.8-9.2H61.9
	V55.4h58c0.3,1.3,0.6,2.9,0.8,5c0.3,2,0.3,3.9,0.3,5.8c0,8-1.2,15.2-3.5,21.8c-2.4,6.6-6,12.4-10.7,17.6c-5.3,5.6-11.6,9.9-19,13
	c-7.4,3.1-15.9,4.6-25.4,4.6c-8.6,0-16.6-1.5-24.2-4.6s-14.2-7.4-19.9-12.9C12.8,100.3,8.3,93.8,5,86.3S0,70.5,0,61.6
	s1.7-17.1,5-24.7s7.7-14,13.4-19.5C24,11.9,30.7,7.7,38.3,4.6S54,0,62.5,0c9.7,0,18.4,1.7,25.9,5c7.5,3.4,14,8,19.4,13.9L91.3,34.9z
	"/>
</svg>
