<?xml version="1.0" encoding="utf-8"?>
<!-- Generator: Adobe Illustrator 22.0.1, SVG Export Plug-In . SVG Version: 6.00 Build 0)  -->
<svg version="1.1" id="Layer_1" xmlns="http://www.w3.org/2000/svg" xmlns:xlink="http://www.w3.org/1999/xlink" x="0px" y="0px"
	 viewBox="0 0 12 12" style="enable-background:new 0 0 12 12;" xml:space="preserve" width="1em" height="1em">
<style type="text/css">
	.st0{fill:#0C344B;}
</style>
<path class="st0" d="M10.3,9.5l-5.9,1.6c-0.2,0-0.4-0.1-0.3-0.3l2.1-9.2c0-0.2,0.3-0.2,0.4,0l3.9,7.6C10.6,9.3,10.5,9.5,10.3,9.5z
	 M11.3,9.1L6.8,0.4v0C6.7,0.2,6.5,0,6.2,0C6,0,5.7,0.1,5.6,0.3L0.7,7.6c-0.2,0.2-0.1,0.5,0,0.7l2.4,3.4C3.2,11.9,3.5,12,3.7,12
	c0.1,0,0.1,0,0.2,0l6.9-1.9c0.2-0.1,0.4-0.2,0.5-0.4C11.4,9.5,11.4,9.3,11.3,9.1z"/>
</svg>
